<mxfile host="app.diagrams.net" modified="2023-11-14T11:22:44.863Z" agent="Mozilla/5.0 (Windows NT 10.0; Win64; x64) AppleWebKit/537.36 (KHTML, like Gecko) Chrome/116.0.0.0 Safari/537.36 OPR/102.0.0.0" etag="6c7XW0l75yJopVvM6Dal" version="22.1.0" type="device">
  <diagram id="C5RBs43oDa-KdzZeNtuy" name="Page-1">
    <mxGraphModel dx="662" dy="399" grid="1" gridSize="10" guides="1" tooltips="1" connect="1" arrows="1" fold="1" page="1" pageScale="1" pageWidth="827" pageHeight="1169" math="0" shadow="0">
      <root>
        <mxCell id="WIyWlLk6GJQsqaUBKTNV-0" />
        <mxCell id="WIyWlLk6GJQsqaUBKTNV-1" parent="WIyWlLk6GJQsqaUBKTNV-0" />
        <mxCell id="Zp1Jfs35HzU5y-u8sekU-32" value="" style="rounded=1;whiteSpace=wrap;html=1;fillColor=#e1d5e7;strokeColor=#9673a6;" vertex="1" parent="WIyWlLk6GJQsqaUBKTNV-1">
          <mxGeometry x="182" y="120" width="60" height="40" as="geometry" />
        </mxCell>
        <mxCell id="Zp1Jfs35HzU5y-u8sekU-14" value="" style="endArrow=classic;html=1;rounded=0;entryX=0;entryY=0.5;entryDx=0;entryDy=0;exitX=1;exitY=0.5;exitDx=0;exitDy=0;" edge="1" parent="WIyWlLk6GJQsqaUBKTNV-1" source="Zp1Jfs35HzU5y-u8sekU-47" target="Zp1Jfs35HzU5y-u8sekU-10">
          <mxGeometry width="50" height="50" relative="1" as="geometry">
            <mxPoint x="120" y="40" as="sourcePoint" />
            <mxPoint x="340" y="240" as="targetPoint" />
          </mxGeometry>
        </mxCell>
        <mxCell id="Zp1Jfs35HzU5y-u8sekU-45" value="Valid Sim" style="edgeLabel;html=1;align=center;verticalAlign=middle;resizable=0;points=[];" vertex="1" connectable="0" parent="Zp1Jfs35HzU5y-u8sekU-14">
          <mxGeometry x="-0.2387" relative="1" as="geometry">
            <mxPoint x="7" as="offset" />
          </mxGeometry>
        </mxCell>
        <mxCell id="Zp1Jfs35HzU5y-u8sekU-17" value="" style="endArrow=classic;html=1;rounded=0;exitX=1;exitY=0.5;exitDx=0;exitDy=0;" edge="1" parent="WIyWlLk6GJQsqaUBKTNV-1" source="Zp1Jfs35HzU5y-u8sekU-10">
          <mxGeometry width="50" height="50" relative="1" as="geometry">
            <mxPoint x="260" y="100" as="sourcePoint" />
            <mxPoint x="270" y="60" as="targetPoint" />
          </mxGeometry>
        </mxCell>
        <mxCell id="Zp1Jfs35HzU5y-u8sekU-19" value="" style="endArrow=classic;html=1;rounded=0;entryX=0;entryY=0.5;entryDx=0;entryDy=0;exitX=1;exitY=0.5;exitDx=0;exitDy=0;" edge="1" parent="WIyWlLk6GJQsqaUBKTNV-1" source="Zp1Jfs35HzU5y-u8sekU-51" target="Zp1Jfs35HzU5y-u8sekU-18">
          <mxGeometry width="50" height="50" relative="1" as="geometry">
            <mxPoint x="340" y="40" as="sourcePoint" />
            <mxPoint x="350" y="150" as="targetPoint" />
          </mxGeometry>
        </mxCell>
        <mxCell id="Zp1Jfs35HzU5y-u8sekU-21" value="" style="group" vertex="1" connectable="0" parent="WIyWlLk6GJQsqaUBKTNV-1">
          <mxGeometry x="392" y="40" width="72" height="40" as="geometry" />
        </mxCell>
        <mxCell id="Zp1Jfs35HzU5y-u8sekU-53" value="" style="group" vertex="1" connectable="0" parent="Zp1Jfs35HzU5y-u8sekU-21">
          <mxGeometry x="-0.5" width="72" height="40" as="geometry" />
        </mxCell>
        <mxCell id="Zp1Jfs35HzU5y-u8sekU-18" value="" style="rounded=1;whiteSpace=wrap;html=1;fillColor=#d5e8d4;strokeColor=#82b366;" vertex="1" parent="Zp1Jfs35HzU5y-u8sekU-53">
          <mxGeometry width="72" height="40" as="geometry" />
        </mxCell>
        <mxCell id="Zp1Jfs35HzU5y-u8sekU-5" value="Manage Tasks" style="text;html=1;strokeColor=none;fillColor=none;align=center;verticalAlign=middle;whiteSpace=wrap;rounded=0;fontFamily=Verdana;fontSize=14;" vertex="1" parent="Zp1Jfs35HzU5y-u8sekU-53">
          <mxGeometry x="13.5" y="5" width="45" height="30" as="geometry" />
        </mxCell>
        <mxCell id="Zp1Jfs35HzU5y-u8sekU-23" value="" style="group" vertex="1" connectable="0" parent="WIyWlLk6GJQsqaUBKTNV-1">
          <mxGeometry x="524" y="40" width="72" height="40" as="geometry" />
        </mxCell>
        <mxCell id="Zp1Jfs35HzU5y-u8sekU-22" value="" style="rounded=1;whiteSpace=wrap;html=1;fillColor=#fad7ac;strokeColor=#b46504;" vertex="1" parent="Zp1Jfs35HzU5y-u8sekU-23">
          <mxGeometry width="72" height="40" as="geometry" />
        </mxCell>
        <mxCell id="Zp1Jfs35HzU5y-u8sekU-6" value="Plan Actions" style="text;html=1;strokeColor=none;fillColor=none;align=center;verticalAlign=middle;whiteSpace=wrap;rounded=0;fontFamily=Verdana;fontSize=14;" vertex="1" parent="Zp1Jfs35HzU5y-u8sekU-23">
          <mxGeometry x="12.31578947368421" y="4.75" width="47.368421052631575" height="30" as="geometry" />
        </mxCell>
        <mxCell id="Zp1Jfs35HzU5y-u8sekU-26" value="" style="endArrow=classic;html=1;rounded=0;exitX=1;exitY=0.5;exitDx=0;exitDy=0;entryX=0;entryY=0.5;entryDx=0;entryDy=0;" edge="1" parent="WIyWlLk6GJQsqaUBKTNV-1" source="Zp1Jfs35HzU5y-u8sekU-18" target="Zp1Jfs35HzU5y-u8sekU-22">
          <mxGeometry width="50" height="50" relative="1" as="geometry">
            <mxPoint x="450" y="150" as="sourcePoint" />
            <mxPoint x="500" y="100" as="targetPoint" />
          </mxGeometry>
        </mxCell>
        <mxCell id="Zp1Jfs35HzU5y-u8sekU-29" value="" style="group" vertex="1" connectable="0" parent="WIyWlLk6GJQsqaUBKTNV-1">
          <mxGeometry x="182" y="40" width="60" height="39.5" as="geometry" />
        </mxCell>
        <mxCell id="Zp1Jfs35HzU5y-u8sekU-10" value="" style="rounded=1;whiteSpace=wrap;html=1;fillColor=#dae8fc;strokeColor=#6c8ebf;" vertex="1" parent="Zp1Jfs35HzU5y-u8sekU-29">
          <mxGeometry width="60" height="39.5" as="geometry" />
        </mxCell>
        <mxCell id="Zp1Jfs35HzU5y-u8sekU-3" value="New Step" style="text;html=1;strokeColor=none;fillColor=none;align=center;verticalAlign=middle;whiteSpace=wrap;rounded=0;fontFamily=Verdana;fontSize=14;" vertex="1" parent="Zp1Jfs35HzU5y-u8sekU-29">
          <mxGeometry x="10.879999999999995" y="9.659999999999997" width="38.13" height="19.75" as="geometry" />
        </mxCell>
        <mxCell id="Zp1Jfs35HzU5y-u8sekU-31" value="" style="group;" vertex="1" connectable="0" parent="WIyWlLk6GJQsqaUBKTNV-1">
          <mxGeometry x="328" y="120" width="80" height="40" as="geometry" />
        </mxCell>
        <mxCell id="Zp1Jfs35HzU5y-u8sekU-30" value="" style="rounded=1;whiteSpace=wrap;html=1;fillColor=#fff2cc;strokeColor=#d6b656;" vertex="1" parent="Zp1Jfs35HzU5y-u8sekU-31">
          <mxGeometry width="80" height="40" as="geometry" />
        </mxCell>
        <mxCell id="Zp1Jfs35HzU5y-u8sekU-7" value="Execute Actions" style="text;html=1;strokeColor=none;fillColor=none;align=center;verticalAlign=middle;whiteSpace=wrap;rounded=0;fontFamily=Verdana;fontSize=14;" vertex="1" parent="Zp1Jfs35HzU5y-u8sekU-31">
          <mxGeometry x="10" y="5" width="60" height="30" as="geometry" />
        </mxCell>
        <mxCell id="Zp1Jfs35HzU5y-u8sekU-33" value="" style="group" vertex="1" connectable="0" parent="WIyWlLk6GJQsqaUBKTNV-1">
          <mxGeometry x="182" y="120" width="60" height="40" as="geometry" />
        </mxCell>
        <mxCell id="Zp1Jfs35HzU5y-u8sekU-8" value="End Step" style="text;html=1;strokeColor=none;fillColor=none;align=center;verticalAlign=middle;whiteSpace=wrap;rounded=0;fontFamily=Verdana;fontSize=14;" vertex="1" parent="Zp1Jfs35HzU5y-u8sekU-33">
          <mxGeometry x="13.75" y="5" width="32.5" height="30" as="geometry" />
        </mxCell>
        <mxCell id="Zp1Jfs35HzU5y-u8sekU-34" value="" style="endArrow=classic;html=1;rounded=0;exitX=0.5;exitY=0;exitDx=0;exitDy=0;entryX=0.5;entryY=1;entryDx=0;entryDy=0;" edge="1" parent="WIyWlLk6GJQsqaUBKTNV-1" source="Zp1Jfs35HzU5y-u8sekU-32" target="Zp1Jfs35HzU5y-u8sekU-10">
          <mxGeometry width="50" height="50" relative="1" as="geometry">
            <mxPoint x="270" y="180" as="sourcePoint" />
            <mxPoint x="320" y="130" as="targetPoint" />
          </mxGeometry>
        </mxCell>
        <mxCell id="Zp1Jfs35HzU5y-u8sekU-42" value="End Conditions Not Met" style="edgeLabel;html=1;align=center;verticalAlign=middle;resizable=0;points=[];" vertex="1" connectable="0" parent="Zp1Jfs35HzU5y-u8sekU-34">
          <mxGeometry x="-0.0617" y="1" relative="1" as="geometry">
            <mxPoint as="offset" />
          </mxGeometry>
        </mxCell>
        <mxCell id="Zp1Jfs35HzU5y-u8sekU-35" value="" style="endArrow=classic;html=1;rounded=0;exitX=0;exitY=0.5;exitDx=0;exitDy=0;entryX=1;entryY=0.5;entryDx=0;entryDy=0;" edge="1" parent="WIyWlLk6GJQsqaUBKTNV-1" source="Zp1Jfs35HzU5y-u8sekU-30" target="Zp1Jfs35HzU5y-u8sekU-32">
          <mxGeometry width="50" height="50" relative="1" as="geometry">
            <mxPoint x="300" y="140" as="sourcePoint" />
            <mxPoint x="350" y="90" as="targetPoint" />
          </mxGeometry>
        </mxCell>
        <mxCell id="Zp1Jfs35HzU5y-u8sekU-41" value="Actions &lt;br&gt;Valid" style="edgeLabel;html=1;align=center;verticalAlign=middle;resizable=0;points=[];" vertex="1" connectable="0" parent="Zp1Jfs35HzU5y-u8sekU-35">
          <mxGeometry x="-0.0741" relative="1" as="geometry">
            <mxPoint as="offset" />
          </mxGeometry>
        </mxCell>
        <mxCell id="Zp1Jfs35HzU5y-u8sekU-37" value="" style="endArrow=classic;html=1;rounded=0;exitX=0;exitY=0.5;exitDx=0;exitDy=0;entryX=1;entryY=0.5;entryDx=0;entryDy=0;" edge="1" parent="WIyWlLk6GJQsqaUBKTNV-1" source="Zp1Jfs35HzU5y-u8sekU-32" target="Zp1Jfs35HzU5y-u8sekU-49">
          <mxGeometry width="50" height="50" relative="1" as="geometry">
            <mxPoint x="140" y="110" as="sourcePoint" />
            <mxPoint x="120" y="170" as="targetPoint" />
          </mxGeometry>
        </mxCell>
        <mxCell id="Zp1Jfs35HzU5y-u8sekU-44" value="Met end&lt;br&gt;condition" style="edgeLabel;html=1;align=center;verticalAlign=middle;resizable=0;points=[];" vertex="1" connectable="0" parent="Zp1Jfs35HzU5y-u8sekU-37">
          <mxGeometry x="-0.0968" y="-1" relative="1" as="geometry">
            <mxPoint x="-2" y="1" as="offset" />
          </mxGeometry>
        </mxCell>
        <mxCell id="Zp1Jfs35HzU5y-u8sekU-39" value="" style="endArrow=classic;html=1;rounded=0;exitX=0.5;exitY=0;exitDx=0;exitDy=0;entryX=0.278;entryY=1.001;entryDx=0;entryDy=0;entryPerimeter=0;" edge="1" parent="WIyWlLk6GJQsqaUBKTNV-1" target="Zp1Jfs35HzU5y-u8sekU-4">
          <mxGeometry width="50" height="50" relative="1" as="geometry">
            <mxPoint x="390" y="120" as="sourcePoint" />
            <mxPoint x="288.5" y="80.00000000000001" as="targetPoint" />
            <Array as="points">
              <mxPoint x="390" y="110" />
              <mxPoint x="290" y="110" />
            </Array>
          </mxGeometry>
        </mxCell>
        <mxCell id="Zp1Jfs35HzU5y-u8sekU-40" value="&amp;nbsp;Invalid Actions&amp;nbsp;" style="edgeLabel;html=1;align=center;verticalAlign=middle;resizable=0;points=[];" vertex="1" connectable="0" parent="Zp1Jfs35HzU5y-u8sekU-39">
          <mxGeometry x="0.0196" relative="1" as="geometry">
            <mxPoint x="7" as="offset" />
          </mxGeometry>
        </mxCell>
        <mxCell id="Zp1Jfs35HzU5y-u8sekU-48" value="" style="group" vertex="1" connectable="0" parent="WIyWlLk6GJQsqaUBKTNV-1">
          <mxGeometry x="10" y="40" width="90" height="40" as="geometry" />
        </mxCell>
        <mxCell id="Zp1Jfs35HzU5y-u8sekU-47" value="" style="rounded=0;whiteSpace=wrap;html=1;" vertex="1" parent="Zp1Jfs35HzU5y-u8sekU-48">
          <mxGeometry width="90" height="40" as="geometry" />
        </mxCell>
        <mxCell id="Zp1Jfs35HzU5y-u8sekU-2" value="New Simulation" style="text;html=1;strokeColor=none;fillColor=none;align=center;verticalAlign=middle;whiteSpace=wrap;rounded=0;fontFamily=Verdana;fontSize=14;" vertex="1" parent="Zp1Jfs35HzU5y-u8sekU-48">
          <mxGeometry x="5" width="80" height="40" as="geometry" />
        </mxCell>
        <mxCell id="Zp1Jfs35HzU5y-u8sekU-50" value="" style="group" vertex="1" connectable="0" parent="WIyWlLk6GJQsqaUBKTNV-1">
          <mxGeometry x="10" y="120" width="90" height="40" as="geometry" />
        </mxCell>
        <mxCell id="Zp1Jfs35HzU5y-u8sekU-49" value="" style="rounded=0;whiteSpace=wrap;html=1;" vertex="1" parent="Zp1Jfs35HzU5y-u8sekU-50">
          <mxGeometry width="90" height="40" as="geometry" />
        </mxCell>
        <mxCell id="Zp1Jfs35HzU5y-u8sekU-9" value="End Simulation" style="text;html=1;strokeColor=none;fillColor=none;align=center;verticalAlign=middle;whiteSpace=wrap;rounded=0;fontFamily=Verdana;fontSize=14;" vertex="1" parent="Zp1Jfs35HzU5y-u8sekU-50">
          <mxGeometry x="5" width="80" height="40" as="geometry" />
        </mxCell>
        <mxCell id="Zp1Jfs35HzU5y-u8sekU-52" value="" style="group" vertex="1" connectable="0" parent="WIyWlLk6GJQsqaUBKTNV-1">
          <mxGeometry x="271" y="40" width="60" height="40" as="geometry" />
        </mxCell>
        <mxCell id="Zp1Jfs35HzU5y-u8sekU-51" value="" style="rounded=1;whiteSpace=wrap;html=1;" vertex="1" parent="Zp1Jfs35HzU5y-u8sekU-52">
          <mxGeometry width="60" height="40" as="geometry" />
        </mxCell>
        <mxCell id="Zp1Jfs35HzU5y-u8sekU-4" value="Select Agent" style="text;html=1;strokeColor=none;fillColor=none;align=center;verticalAlign=middle;whiteSpace=wrap;rounded=0;fontFamily=Verdana;fontSize=14;" vertex="1" parent="Zp1Jfs35HzU5y-u8sekU-52">
          <mxGeometry x="5" width="50" height="40" as="geometry" />
        </mxCell>
        <mxCell id="Zp1Jfs35HzU5y-u8sekU-54" value="&lt;font face=&quot;Verdana&quot;&gt;Check Agent Queue&lt;/font&gt;" style="rounded=1;whiteSpace=wrap;html=1;" vertex="1" parent="WIyWlLk6GJQsqaUBKTNV-1">
          <mxGeometry x="512" y="120" width="88" height="40" as="geometry" />
        </mxCell>
        <mxCell id="Zp1Jfs35HzU5y-u8sekU-55" value="" style="endArrow=classic;html=1;rounded=0;exitX=0.75;exitY=1;exitDx=0;exitDy=0;entryX=0.75;entryY=0;entryDx=0;entryDy=0;" edge="1" parent="WIyWlLk6GJQsqaUBKTNV-1" source="Zp1Jfs35HzU5y-u8sekU-22" target="Zp1Jfs35HzU5y-u8sekU-54">
          <mxGeometry width="50" height="50" relative="1" as="geometry">
            <mxPoint x="300" y="140" as="sourcePoint" />
            <mxPoint x="350" y="90" as="targetPoint" />
          </mxGeometry>
        </mxCell>
        <mxCell id="Zp1Jfs35HzU5y-u8sekU-56" value="" style="endArrow=classic;html=1;rounded=0;exitX=0.25;exitY=0;exitDx=0;exitDy=0;entryX=0.75;entryY=1;entryDx=0;entryDy=0;" edge="1" parent="WIyWlLk6GJQsqaUBKTNV-1" source="Zp1Jfs35HzU5y-u8sekU-54" target="Zp1Jfs35HzU5y-u8sekU-51">
          <mxGeometry width="50" height="50" relative="1" as="geometry">
            <mxPoint x="400" y="140" as="sourcePoint" />
            <mxPoint x="450" y="90" as="targetPoint" />
            <Array as="points">
              <mxPoint x="534" y="100" />
              <mxPoint x="316" y="100" />
            </Array>
          </mxGeometry>
        </mxCell>
        <mxCell id="Zp1Jfs35HzU5y-u8sekU-57" value="&amp;nbsp;Agent Needs Plan&amp;nbsp;" style="edgeLabel;html=1;align=center;verticalAlign=middle;resizable=0;points=[];" vertex="1" connectable="0" parent="Zp1Jfs35HzU5y-u8sekU-56">
          <mxGeometry x="-0.2097" y="1" relative="1" as="geometry">
            <mxPoint y="-2" as="offset" />
          </mxGeometry>
        </mxCell>
        <mxCell id="Zp1Jfs35HzU5y-u8sekU-58" value="" style="endArrow=classic;html=1;rounded=0;exitX=0;exitY=0.5;exitDx=0;exitDy=0;entryX=1;entryY=0.5;entryDx=0;entryDy=0;" edge="1" parent="WIyWlLk6GJQsqaUBKTNV-1" source="Zp1Jfs35HzU5y-u8sekU-54" target="Zp1Jfs35HzU5y-u8sekU-30">
          <mxGeometry width="50" height="50" relative="1" as="geometry">
            <mxPoint x="420" y="140" as="sourcePoint" />
            <mxPoint x="470" y="90" as="targetPoint" />
          </mxGeometry>
        </mxCell>
        <mxCell id="Zp1Jfs35HzU5y-u8sekU-59" value="All Agents&lt;br&gt;Have Plans" style="edgeLabel;html=1;align=center;verticalAlign=middle;resizable=0;points=[];" vertex="1" connectable="0" parent="Zp1Jfs35HzU5y-u8sekU-58">
          <mxGeometry x="-0.1481" y="1" relative="1" as="geometry">
            <mxPoint x="-2" y="-1" as="offset" />
          </mxGeometry>
        </mxCell>
        <mxCell id="Zp1Jfs35HzU5y-u8sekU-63" value="&lt;font face=&quot;Verdana&quot; style=&quot;font-size: 14px;&quot;&gt;Simulation Crash&lt;/font&gt;" style="rounded=0;whiteSpace=wrap;html=1;fillColor=#f8cecc;strokeColor=#b85450;" vertex="1" parent="WIyWlLk6GJQsqaUBKTNV-1">
          <mxGeometry x="10" y="180" width="128" height="40" as="geometry" />
        </mxCell>
        <mxCell id="Zp1Jfs35HzU5y-u8sekU-64" value="" style="endArrow=classic;html=1;rounded=0;exitX=0.5;exitY=1;exitDx=0;exitDy=0;entryX=1;entryY=0.5;entryDx=0;entryDy=0;" edge="1" parent="WIyWlLk6GJQsqaUBKTNV-1" source="Zp1Jfs35HzU5y-u8sekU-30" target="Zp1Jfs35HzU5y-u8sekU-63">
          <mxGeometry width="50" height="50" relative="1" as="geometry">
            <mxPoint x="290" y="180" as="sourcePoint" />
            <mxPoint x="340" y="130" as="targetPoint" />
            <Array as="points">
              <mxPoint x="368" y="200" />
            </Array>
          </mxGeometry>
        </mxCell>
        <mxCell id="Zp1Jfs35HzU5y-u8sekU-65" value="&amp;nbsp;Simulation Could Not Advance&amp;nbsp;" style="edgeLabel;html=1;align=center;verticalAlign=middle;resizable=0;points=[];" vertex="1" connectable="0" parent="Zp1Jfs35HzU5y-u8sekU-64">
          <mxGeometry x="0.1111" relative="1" as="geometry">
            <mxPoint as="offset" />
          </mxGeometry>
        </mxCell>
        <mxCell id="Zp1Jfs35HzU5y-u8sekU-66" value="" style="endArrow=classic;html=1;rounded=0;exitX=0.5;exitY=0;exitDx=0;exitDy=0;entryX=0.5;entryY=0;entryDx=0;entryDy=0;" edge="1" parent="WIyWlLk6GJQsqaUBKTNV-1" source="Zp1Jfs35HzU5y-u8sekU-22" target="Zp1Jfs35HzU5y-u8sekU-18">
          <mxGeometry width="50" height="50" relative="1" as="geometry">
            <mxPoint x="290" y="180" as="sourcePoint" />
            <mxPoint x="340" y="130" as="targetPoint" />
            <Array as="points">
              <mxPoint x="560" y="20" />
              <mxPoint x="427" y="20" />
            </Array>
          </mxGeometry>
        </mxCell>
        <mxCell id="Zp1Jfs35HzU5y-u8sekU-67" value="&amp;nbsp;Agent Needs New Task&amp;nbsp;" style="edgeLabel;html=1;align=center;verticalAlign=middle;resizable=0;points=[];" vertex="1" connectable="0" parent="Zp1Jfs35HzU5y-u8sekU-66">
          <mxGeometry x="0.0911" relative="1" as="geometry">
            <mxPoint x="7" as="offset" />
          </mxGeometry>
        </mxCell>
      </root>
    </mxGraphModel>
  </diagram>
</mxfile>
